<svg width="132" height="131" viewBox="0 0 132 131" fill="none" xmlns="http://www.w3.org/2000/svg">
<g filter="url(#filter0_d_2_160)">
<path d="M77.3316 7.85018L77.49 7.9515L77.6759 7.92336L90.9762 5.90999L98.3797 17.1413L98.4832 17.2983L98.6645 17.3482L111.634 20.9186L113.829 34.1902L113.86 34.3757L114.005 34.495L124.401 43.0319L121.008 56.049L120.961 56.2309L121.045 56.399L127.07 68.4263L118.676 78.9381L118.559 79.085L118.567 79.2728L119.18 92.7108L107.236 98.8997L107.069 98.9862L107 99.1613L102.094 111.686L88.6655 112.482L88.4778 112.493L88.3439 112.626L78.7671 122.072L66.176 117.337L66 117.271L65.824 117.337L53.2329 122.072L43.6561 112.626L43.5222 112.493L43.3345 112.482L29.9062 111.686L24.9996 99.1613L24.9311 98.9862L24.7641 98.8997L12.8205 92.7108L13.4325 79.2728L13.4411 79.085L13.3238 78.9381L4.92995 68.4263L10.9548 56.399L11.039 56.2309L10.9916 56.049L7.599 43.0319L17.9949 34.495L18.1402 34.3757L18.1709 34.1902L20.3661 20.9186L33.3355 17.3482L33.5168 17.2983L33.6203 17.1413L41.0237 5.90999L54.3241 7.92336L54.51 7.9515L54.6684 7.85018L66 0.601126L77.3316 7.85018Z" stroke="white" shape-rendering="crispEdges">    
</path>
</g>
<defs>
<filter id="filter0_d_2_160" x="0.3396" y="0.00756836" width="131.321" height="130.645" filterUnits="userSpaceOnUse" color-interpolation-filters="sRGB">
<feFlood flood-opacity="0" result="BackgroundImageFix"/>
<feColorMatrix in="SourceAlpha" type="matrix" values="0 0 0 0 0 0 0 0 0 0 0 0 0 0 0 0 0 0 127 0" result="hardAlpha"/>
<feOffset dy="4"/>
<feGaussianBlur stdDeviation="2"/>
<feComposite in2="hardAlpha" operator="out"/>
<feColorMatrix type="matrix" values="0 0 0 0 0 0 0 0 0 0 0 0 0 0 0 0 0 0 0.25 0"/>
<feBlend mode="normal" in2="BackgroundImageFix" result="effect1_dropShadow_2_160"/>
<feBlend mode="normal" in="SourceGraphic" in2="effect1_dropShadow_2_160" result="shape"/>
</filter>
</defs>
</svg>
