<svg width="1440" height="233" viewBox="0 0 1440 233" fill="none" xmlns="http://www.w3.org/2000/svg">

   <path d="M0 175.235C116.668 214.509 305.231 256.347 443.346 214.783C651.274 152.21 827.213 -49.9822 1133.61 13.0165C1256.25 38.2344 1360.07 83.1894 1440 129.122" stroke="#590D56" fill="transparent">
   <animate attributeName='d' dur="10s" repeatCount="indefinite" values="
   M0 175.235C116.668 214.509 305.231 256.347 443.346 214.783C651.274 152.21 827.213 -49.9822 1133.61 13.0165C1256.25 38.2344 1360.07 83.1894 1440 129.122;
   M0 167.234C134.476 116.092 325.567 152.402 443.346 206.782C730.601 339.411 973.941 33.5059 1133.61 5.01624C1274.06 -20.0446 1385.07 73.7365 1440 121.122;
   M0 190.234C65.2267 269.517 264.672 372.297 443.346 229.783C654.547 61.3233 961.645 -54.1497 1133.61 28.0163C1340.38 126.816 1450.49 139.868 1440 144.122;
   M0 175.235C116.668 214.509 305.231 256.347 443.346 214.783C651.274 152.21 827.213 -49.9822 1133.61 13.0165C1256.25 38.2344 1360.07 83.1894 1440 129.122;
   ">

   </animate>
   </path>
   <path d="M0 167.234C134.476 116.092 325.567 152.402 443.346 206.782C730.601 339.411 973.941 33.5059 1133.61 5.01624C1274.06 -20.0446 1385.07 73.7365 1440 121.122"  fill="transparent"/>
   <path d="M0 190.234C65.2267 269.517 264.672 372.297 443.346 229.783C654.547 61.3233 961.645 -54.1497 1133.61 28.0163C1340.38 126.816 1450.49 139.868 1440 144.122"  fill="transparent"/>
   <path d="M0 175.235C116.668 214.509 305.231 256.347 443.346 214.783C651.274 152.21 827.213 -49.9822 1133.61 13.0165C1256.25 38.2344 1360.07 83.1894 1440 129.122"  fill="transparent"/>

</svg>
